<svg width="205" height="105" viewBox="0 0 205 105" fill="none" xmlns="http://www.w3.org/2000/svg">
<rect width="205" height="104.856" rx="52.4282" fill="#96FF01"/>
<circle cx="148.448" cy="51.8391" r="43.592" fill="#0F0F0F"/>
<path d="M147.265 18.5293C147.553 16.4742 150.522 16.4742 150.81 18.5293L154.251 43.0617C154.391 44.0653 155.336 44.752 156.334 44.5757L180.729 40.267C182.773 39.9061 183.69 42.7295 181.825 43.6386L159.556 54.4918C158.645 54.9358 158.284 56.0469 158.76 56.9416L170.397 78.8111C171.371 80.643 168.97 82.388 167.529 80.8948L150.325 63.0701C149.621 62.3409 148.453 62.3409 147.749 63.0701L130.546 80.8948C129.105 82.388 126.703 80.643 127.678 78.811L139.314 56.9416C139.79 56.0469 139.429 54.9358 138.518 54.4918L116.25 43.6386C114.384 42.7295 115.302 39.9061 117.345 40.267L141.74 44.5757C142.738 44.752 143.683 44.0653 143.824 43.0617L147.265 18.5293Z" fill="#96FF01"/>
</svg>
