<svg width="216" height="174" viewBox="0 0 216 174" fill="none" xmlns="http://www.w3.org/2000/svg">
<path d="M212.649 37.2412C189.633 -23.8938 114.833 3.43712 108 34.0046C98.65 1.63903 25.6476 -22.4553 3.35136 37.2412C-21.4622 103.77 99.3692 163.467 108 173.177C116.631 165.265 237.462 102.692 212.649 37.2412" fill="#ECB4C7"/>
<path d="M53.4009 69.3404C54.3719 69.0803 55.7281 69.4037 57.4697 70.3107C59.2113 71.2177 60.2642 72.3509 60.6284 73.7102C61.6275 77.4387 61.6406 85.1777 60.6679 96.9272C60.3568 101.048 60.399 103.847 60.7945 105.323C60.8465 105.517 60.9166 105.623 61.0046 105.641C61.0927 105.659 61.8164 105.486 63.1758 105.122C64.5351 104.757 66.3473 104.064 68.6123 103.04C70.9058 101.968 72.7384 101.04 74.1102 100.256C75.5208 99.4619 76.3621 99.0283 76.6339 98.9555C77.6049 98.6953 78.2569 99.1866 78.5899 100.429C79.2455 102.876 77.912 105.357 74.5894 107.87C71.2953 110.335 67.2014 112.223 62.3078 113.534C60.4048 114.044 58.4697 113.813 56.5027 112.841C54.5642 111.821 53.3659 110.456 52.9081 108.747C52.4502 107.038 52.4094 101.138 52.7859 91.0469C53.1519 80.9169 52.9655 74.4731 52.2266 71.7156C51.8832 70.4339 52.2746 69.6422 53.4009 69.3404ZM100.179 92.7089C101.891 90.0858 103.176 87.0358 104.034 83.5589C104.882 80.0432 104.931 76.8872 104.182 74.0909C103.433 71.2946 102.506 69.2327 101.401 67.9054C100.296 66.578 99.1219 66.0808 97.8791 66.4138C96.6363 66.7468 95.3069 68.3102 93.8909 71.104C92.5033 73.8485 91.4779 77.2452 90.8145 81.2942C90.1899 85.3328 90.3199 89.0027 91.2045 92.304C91.652 93.974 92.2492 95.2709 92.9963 96.1946C93.7329 97.0795 94.4508 97.4283 95.1498 97.241C96.781 96.8039 98.4576 95.2932 100.179 92.7089ZM97.0969 104.274C94.2229 105.045 91.2849 104.333 88.2831 102.141C85.2708 99.9089 83.39 97.395 82.6407 94.5986C81.6833 91.0255 81.3848 87.1927 81.7451 83.1C82.095 78.9685 82.9155 75.2728 84.2066 72.013C85.5261 68.704 87.1751 65.8478 89.1536 63.4445C91.1217 61.0023 93.135 59.5054 95.1934 58.9539C98.9606 57.9445 102.48 58.7289 105.752 61.3072C109.013 63.8467 111.18 67.1167 112.252 71.117C113.323 75.1173 113.401 79.4464 112.485 84.1044C111.558 88.7235 109.703 92.9876 106.921 96.8967C104.178 100.795 100.903 103.255 97.0969 104.274ZM138.634 47.4388C139.722 47.1474 140.918 47.2639 142.224 47.7881C143.559 48.263 144.325 48.8695 144.523 49.6074C144.72 50.3453 144.784 51.2026 144.712 52.1791C144.68 53.1452 144.515 54.3964 144.219 55.9326C143.952 57.4196 143.66 58.8924 143.343 60.351C143.054 61.7603 142.662 63.6346 142.165 65.974C141.657 68.2746 141.228 70.3251 140.878 72.1256C140.528 73.9261 140.159 76.0439 139.771 78.479C139.421 80.9036 139.123 82.8983 138.877 84.463C138.619 85.9888 138.318 87.5056 137.973 89.0135C137.321 92.0187 136.355 93.693 135.073 94.0364C134.49 94.1925 133.56 93.9838 132.283 93.4104C131.044 92.8265 130.135 92.1542 129.557 91.3934C127.629 88.7047 124.464 82.8718 120.06 73.8949C115.657 64.9179 113.195 59.4585 112.675 57.5166C112.154 55.5747 112.419 54.4633 113.467 54.1823C114.788 53.8285 116.298 54.0274 117.998 54.7791C119.698 55.5307 121.186 56.7346 122.462 58.3907C122.981 59.0842 123.715 60.6568 124.663 63.1084C125.64 65.5108 126.822 68.5241 128.209 72.1485C129.625 75.7237 130.92 78.7693 132.093 81.2854C133.165 69.5927 134.202 61.1143 135.206 55.8502C136.249 50.5756 137.391 47.7718 138.634 47.4388ZM159.131 61.428C161.189 60.8765 163.377 60.1862 165.694 59.3572C168 58.4894 169.426 57.9826 169.969 57.8369C170.552 57.6808 171.035 57.6971 171.419 57.8857C171.841 58.0639 172.104 58.3472 172.208 58.7356C172.666 60.4444 171.419 62.2356 168.466 64.1092C165.513 65.9827 162.232 67.4863 158.622 68.6198C158.367 73.7251 158.406 76.8991 158.739 78.1419C158.916 78.8022 159.334 79.0438 159.994 78.8669C164.422 77.6806 168.829 75.8752 173.217 73.4509C174.694 72.597 175.55 72.1388 175.783 72.0764C176.521 71.8787 177.03 72.3041 177.311 73.3527C177.686 74.7509 177.021 76.386 175.316 78.2581C173.612 80.1301 171.31 81.8708 168.411 83.48C165.512 85.0893 162.567 86.2946 159.577 87.0959C157.79 87.5746 156.002 87.3463 154.211 86.4108C152.41 85.4365 151.27 84.0561 150.791 82.2696C150.302 80.4442 150.075 75.6348 150.109 67.8414C150.183 60.0375 149.784 54.2752 148.912 50.5544C148.841 50.4483 148.76 50.2204 148.666 49.8709C148.52 49.3272 148.483 48.8791 148.556 48.5268C148.691 47.3249 149.694 46.3278 151.563 45.5356C153.422 44.7046 156.875 43.6126 161.924 42.2598C170.313 40.0119 174.757 39.8201 175.257 41.6844C175.58 42.8883 174.774 43.9991 172.841 45.0167C171.526 45.7021 169.681 46.5085 167.307 47.436C163.655 48.8726 160.462 50.3942 157.728 52.0007C158.436 54.6417 158.787 57.8153 158.781 61.5217L159.131 61.428Z" fill="#DA4363"/>
</svg>
